# xmcd
#
# Track frame offsets: 
#        150
#        23536
#        44480
#        63154
#        79398
#        97966
#        112575
#        125032
#        144191
#        163823
#        184933
#        205242
#        227823
#        251058
#        266084
#
# Disc length: 3720 seconds
#
# Revision: 0
# Processed by: cddbd v1.5.2PL0 Copyright (c) Steve Scherf et al.
# Submitted via: ExactAudioCopyFreeDBPlugin 1.0
#
DISCID=cc0e860f
DTITLE=พงษ์สิทธิ์ คำภีร์ - 30th Anniversary Kampee Disc 2
DYEAR=1900
DGENRE=ไทยเพื่อชีวิต
TTITLE0=มือปืน
TTITLE1=ใจบงการ
TTITLE2=สุดใจ
TTITLE3=ไถ่เธอคืนมา
TTITLE4=พ่อเป็นกรรมกร
TTITLE5=แรงยังมี
TTITLE6=คืนเปลี่ยว
TTITLE7=มาตามสัญญา
TTITLE8=คิดถึง
TTITLE9=ยังคอย
TTITLE10=ปีกหัก
TTITLE11=เจ้านาย
TTITLE12=หนุ่มน้อย
TTITLE13=โรงเรียนของหนู
TTITLE14=ผีโรงเย็น
EXTD=
EXTT0=
EXTT1=
EXTT2=
EXTT3=
EXTT4=
EXTT5=
EXTT6=
EXTT7=
EXTT8=
EXTT9=
EXTT10=
EXTT11=
EXTT12=
EXTT13=
EXTT14=
PLAYORDER=
